<svg xmlns="http://www.w3.org/2000/svg" >
  <symbol id="paper" fill="currentColor" viewBox="0 0 32 32">
    <path  d="M30.5 31.573a1.501 1.501 0 0 0 1.5-1.5V5.194c0-.628-.397-1.195-.988-1.409L20.671.03c-.024-.009-.048-.006-.072-.011a.453.453 0 0 0-.245.011c-.013.004-.027 0-.04.006l-9.813 3.919L2.057.584A1.497 1.497 0 0 0 0 1.977V26.83c0 .616.37 1.163.943 1.393l9.371 3.742a.504.504 0 0 0 .372-.001l9.823-3.922 9.48 3.441c.165.06.338.09.511.09zM31 5.194v24.879a.495.495 0 0 1-.213.409.49.49 0 0 1-.457.061L21 27.157V1.213l9.67 3.511c.197.073.33.261.33.47zM1 26.829V1.977c0-.169.08-.32.22-.414a.485.485 0 0 1 .466-.05L10 4.832v25.931l-8.685-3.468A.503.503 0 0 1 1 26.829zm19 .339-9 3.594V4.832l9-3.594v25.93z"/>
  </symbol>
</svg>
